<mxfile host="app.diagrams.net" agent="Mozilla/5.0 (Windows NT 10.0; Win64; x64) AppleWebKit/537.36 (KHTML, like Gecko) Chrome/128.0.0.0 Safari/537.36 OPR/114.0.0.0 (Edition std-1)" version="25.0.1">
  <diagram name="Page-1" id="_UrB7X2O_bQnR6X4eC7d">
    <mxGraphModel dx="1041" dy="478" grid="1" gridSize="10" guides="1" tooltips="1" connect="1" arrows="1" fold="1" page="1" pageScale="1" pageWidth="1654" pageHeight="1169" math="0" shadow="0">
      <root>
        <mxCell id="0" />
        <mxCell id="1" parent="0" />
        <mxCell id="7U7vAsr_AXt3HuqYSihi-1" value="user" style="swimlane;whiteSpace=wrap;html=1;startSize=30;" vertex="1" parent="1">
          <mxGeometry x="300" y="100" width="200" height="180" as="geometry" />
        </mxCell>
        <mxCell id="7U7vAsr_AXt3HuqYSihi-6" value="user_id (PK)" style="text;html=1;align=center;verticalAlign=middle;whiteSpace=wrap;rounded=0;" vertex="1" parent="7U7vAsr_AXt3HuqYSihi-1">
          <mxGeometry y="30" width="200" height="30" as="geometry" />
        </mxCell>
        <mxCell id="7U7vAsr_AXt3HuqYSihi-7" value="username" style="text;html=1;align=center;verticalAlign=middle;whiteSpace=wrap;rounded=0;" vertex="1" parent="7U7vAsr_AXt3HuqYSihi-1">
          <mxGeometry y="60" width="200" height="30" as="geometry" />
        </mxCell>
        <mxCell id="7U7vAsr_AXt3HuqYSihi-8" value="email" style="text;html=1;align=center;verticalAlign=middle;whiteSpace=wrap;rounded=0;" vertex="1" parent="7U7vAsr_AXt3HuqYSihi-1">
          <mxGeometry y="90" width="200" height="30" as="geometry" />
        </mxCell>
        <mxCell id="7U7vAsr_AXt3HuqYSihi-9" value="type" style="text;html=1;align=center;verticalAlign=middle;whiteSpace=wrap;rounded=0;" vertex="1" parent="7U7vAsr_AXt3HuqYSihi-1">
          <mxGeometry y="120" width="200" height="30" as="geometry" />
        </mxCell>
        <mxCell id="7U7vAsr_AXt3HuqYSihi-10" value="password" style="text;html=1;align=center;verticalAlign=middle;whiteSpace=wrap;rounded=0;" vertex="1" parent="7U7vAsr_AXt3HuqYSihi-1">
          <mxGeometry y="150" width="200" height="30" as="geometry" />
        </mxCell>
        <mxCell id="7U7vAsr_AXt3HuqYSihi-2" value="workout" style="swimlane;whiteSpace=wrap;html=1;startSize=30;" vertex="1" parent="1">
          <mxGeometry x="550" y="100" width="200" height="200" as="geometry" />
        </mxCell>
        <mxCell id="7U7vAsr_AXt3HuqYSihi-11" value="workout_id (PK)" style="text;html=1;align=center;verticalAlign=middle;whiteSpace=wrap;rounded=0;" vertex="1" parent="7U7vAsr_AXt3HuqYSihi-2">
          <mxGeometry y="30" width="200" height="30" as="geometry" />
        </mxCell>
        <mxCell id="7U7vAsr_AXt3HuqYSihi-12" value="user_id (FK)" style="text;html=1;align=center;verticalAlign=middle;whiteSpace=wrap;rounded=0;" vertex="1" parent="7U7vAsr_AXt3HuqYSihi-2">
          <mxGeometry y="60" width="200" height="30" as="geometry" />
        </mxCell>
        <mxCell id="7U7vAsr_AXt3HuqYSihi-13" value="name" style="text;html=1;align=center;verticalAlign=middle;whiteSpace=wrap;rounded=0;" vertex="1" parent="7U7vAsr_AXt3HuqYSihi-2">
          <mxGeometry y="90" width="200" height="30" as="geometry" />
        </mxCell>
        <mxCell id="7U7vAsr_AXt3HuqYSihi-3" value="exercise" style="swimlane;whiteSpace=wrap;html=1;startSize=30;" vertex="1" parent="1">
          <mxGeometry x="300" y="340" width="200" height="120" as="geometry" />
        </mxCell>
        <mxCell id="7U7vAsr_AXt3HuqYSihi-14" value="exercise_id (PK)" style="text;html=1;align=center;verticalAlign=middle;whiteSpace=wrap;rounded=0;" vertex="1" parent="7U7vAsr_AXt3HuqYSihi-3">
          <mxGeometry y="30" width="200" height="30" as="geometry" />
        </mxCell>
        <mxCell id="7U7vAsr_AXt3HuqYSihi-15" value="workout_id (FK)" style="text;html=1;align=center;verticalAlign=middle;whiteSpace=wrap;rounded=0;" vertex="1" parent="7U7vAsr_AXt3HuqYSihi-3">
          <mxGeometry y="60" width="200" height="30" as="geometry" />
        </mxCell>
        <mxCell id="7U7vAsr_AXt3HuqYSihi-16" value="name" style="text;html=1;align=center;verticalAlign=middle;whiteSpace=wrap;rounded=0;" vertex="1" parent="7U7vAsr_AXt3HuqYSihi-3">
          <mxGeometry y="90" width="200" height="30" as="geometry" />
        </mxCell>
        <mxCell id="7U7vAsr_AXt3HuqYSihi-4" value="workout_exercise" style="swimlane;whiteSpace=wrap;html=1;startSize=30;" vertex="1" parent="1">
          <mxGeometry x="580" y="340" width="200" height="210" as="geometry" />
        </mxCell>
        <mxCell id="7U7vAsr_AXt3HuqYSihi-19" value="id (PK)" style="text;html=1;align=center;verticalAlign=middle;whiteSpace=wrap;rounded=0;" vertex="1" parent="7U7vAsr_AXt3HuqYSihi-4">
          <mxGeometry y="30" width="200" height="30" as="geometry" />
        </mxCell>
        <mxCell id="7U7vAsr_AXt3HuqYSihi-21" value="exercise_id (FK)" style="text;html=1;align=center;verticalAlign=middle;whiteSpace=wrap;rounded=0;" vertex="1" parent="7U7vAsr_AXt3HuqYSihi-4">
          <mxGeometry y="60" width="200" height="30" as="geometry" />
        </mxCell>
        <mxCell id="7U7vAsr_AXt3HuqYSihi-22" value="workout_id (FK)" style="text;html=1;align=center;verticalAlign=middle;whiteSpace=wrap;rounded=0;" vertex="1" parent="7U7vAsr_AXt3HuqYSihi-4">
          <mxGeometry y="90" width="200" height="30" as="geometry" />
        </mxCell>
        <mxCell id="7U7vAsr_AXt3HuqYSihi-17" value="set_number" style="text;html=1;align=center;verticalAlign=middle;whiteSpace=wrap;rounded=0;" vertex="1" parent="7U7vAsr_AXt3HuqYSihi-4">
          <mxGeometry y="120" width="200" height="30" as="geometry" />
        </mxCell>
        <mxCell id="7U7vAsr_AXt3HuqYSihi-23" value="reps" style="text;html=1;align=center;verticalAlign=middle;whiteSpace=wrap;rounded=0;" vertex="1" parent="7U7vAsr_AXt3HuqYSihi-4">
          <mxGeometry y="150" width="200" height="30" as="geometry" />
        </mxCell>
        <mxCell id="7U7vAsr_AXt3HuqYSihi-24" value="weight" style="text;html=1;align=center;verticalAlign=middle;whiteSpace=wrap;rounded=0;" vertex="1" parent="7U7vAsr_AXt3HuqYSihi-4">
          <mxGeometry y="180" width="200" height="30" as="geometry" />
        </mxCell>
      </root>
    </mxGraphModel>
  </diagram>
</mxfile>
